<svg id="visual" viewBox="0 0 900 600" width="900" height="600" xmlns="http://www.w3.org/2000/svg" xmlns:xlink="http://www.w3.org/1999/xlink" version="1.1"><rect x="0" y="0" width="900" height="600" fill="#001220"></rect><path d="M0 367L21.5 380.2C43 393.3 86 419.7 128.8 433C171.7 446.3 214.3 446.7 257.2 430.8C300 415 343 383 385.8 367C428.7 351 471.3 351 514.2 357C557 363 600 375 642.8 377.8C685.7 380.7 728.3 374.3 771.2 373.2C814 372 857 376 878.5 378L900 380L900 601L878.5 601C857 601 814 601 771.2 601C728.3 601 685.7 601 642.8 601C600 601 557 601 514.2 601C471.3 601 428.7 601 385.8 601C343 601 300 601 257.2 601C214.3 601 171.7 601 128.8 601C86 601 43 601 21.5 601L0 601Z" fill="#fa7268"></path><path d="M0 438L21.5 434C43 430 86 422 128.8 415.3C171.7 408.7 214.3 403.3 257.2 405.8C300 408.3 343 418.7 385.8 418.5C428.7 418.3 471.3 407.7 514.2 411.5C557 415.3 600 433.7 642.8 441.7C685.7 449.7 728.3 447.3 771.2 451.8C814 456.3 857 467.7 878.5 473.3L900 479L900 601L878.5 601C857 601 814 601 771.2 601C728.3 601 685.7 601 642.8 601C600 601 557 601 514.2 601C471.3 601 428.7 601 385.8 601C343 601 300 601 257.2 601C214.3 601 171.7 601 128.8 601C86 601 43 601 21.5 601L0 601Z" fill="#ef5f67"></path><path d="M0 481L21.5 473.7C43 466.3 86 451.7 128.8 446C171.7 440.3 214.3 443.7 257.2 455.8C300 468 343 489 385.8 494.2C428.7 499.3 471.3 488.7 514.2 483C557 477.3 600 476.7 642.8 478.3C685.7 480 728.3 484 771.2 477.5C814 471 857 454 878.5 445.5L900 437L900 601L878.5 601C857 601 814 601 771.2 601C728.3 601 685.7 601 642.8 601C600 601 557 601 514.2 601C471.3 601 428.7 601 385.8 601C343 601 300 601 257.2 601C214.3 601 171.7 601 128.8 601C86 601 43 601 21.5 601L0 601Z" fill="#e34c67"></path><path d="M0 515L21.5 509.7C43 504.3 86 493.7 128.8 491.3C171.7 489 214.3 495 257.2 504.3C300 513.7 343 526.3 385.8 530.2C428.7 534 471.3 529 514.2 528.7C557 528.3 600 532.7 642.8 528.5C685.7 524.3 728.3 511.7 771.2 507.3C814 503 857 507 878.5 509L900 511L900 601L878.5 601C857 601 814 601 771.2 601C728.3 601 685.7 601 642.8 601C600 601 557 601 514.2 601C471.3 601 428.7 601 385.8 601C343 601 300 601 257.2 601C214.3 601 171.7 601 128.8 601C86 601 43 601 21.5 601L0 601Z" fill="#d53867"></path><path d="M0 540L21.5 541C43 542 86 544 128.8 547.7C171.7 551.3 214.3 556.7 257.2 557.8C300 559 343 556 385.8 553.8C428.7 551.7 471.3 550.3 514.2 552.8C557 555.3 600 561.7 642.8 563.7C685.7 565.7 728.3 563.3 771.2 558.7C814 554 857 547 878.5 543.5L900 540L900 601L878.5 601C857 601 814 601 771.2 601C728.3 601 685.7 601 642.8 601C600 601 557 601 514.2 601C471.3 601 428.7 601 385.8 601C343 601 300 601 257.2 601C214.3 601 171.7 601 128.8 601C86 601 43 601 21.5 601L0 601Z" fill="#c62368"></path></svg>